<svg width="28" height="28" viewBox="0 0 28 28" fill="none" xmlns="http://www.w3.org/2000/svg">
  <path d="M4.8 3.4L18.8 2.4C19.8 2.3 20.4 2.6 21.1 3.1L24.5 5.6C25.3 6.2 25.6 6.8 25.6 7.8V22.5C25.6 24 24.7 24.8 23.2 24.9L8.5 25.8C7.5 25.9 6.8 25.7 6.1 24.8L2.7 20.4C2.2 19.8 2 19.1 2 18.2V6C2 4.4 3.1 3.5 4.8 3.4Z" fill="#171717"/>
  <path d="M8.2 8.1C7.7 7.7 7.8 7.1 8.5 7L21.9 6.2C22.4 6.2 22.8 6.5 22.8 7V21.8C22.8 22.4 22.5 22.7 21.9 22.8L8.6 23.6C8 23.6 7.6 23.3 7.6 22.7V8.9C7.6 8.5 7.8 8.3 8.2 8.1Z" fill="white"/>
  <path d="M9.6 7.6L22.3 6.8L19.7 4.9L6.4 5.8L9.6 7.6Z" fill="white"/>
  <path d="M10.5 20.3L12.1 19.9V11.9L10.6 11.8V10.5L14.4 10.2L19 17.2V11.4L17.2 11.2V9.9L21.6 9.6V10.9L20.2 11.3V20.8L18.6 20.9L13.3 12.9V19.8L15.1 20.1V21.3L10.5 21.6V20.3Z" fill="#171717"/>
</svg>
